#!OML:ASF I:\golf\golf\golf 2\Subject 1\2002-09-07\Subject1.ASF
:FULLY-SPECIFIED
:DEGREES
298
root -6.52976 18.2191 -2.8778 -168.479 4.59307 -174.665
lowerback -5.4311 8.84434 13.2988
upperback -9.19973 15.6224 8.35504
thorax -6.37955 8.57222 1.67668
lowerneck -6.03221 -20.7954 -0.720174
upperneck 11.8522 -30.0269 3.35427
head 5.19223 -14.8449 -0.882358
rclavicle -8.34896e-014 9.22361e-014
rhumerus 95.9185 36.5311 -52.2085
rradius 62.4063
rwrist 11.2248
rhand -26.2177 23.6545
rfingers 7.12502
rthumb 0.335527 -6.32498
lclavicle -8.34896e-014 9.22361e-014
lhumerus 50.9065 7.98265 78.4896
lradius 80.0922
lwrist 30.1855
lhand -29.5562 12.7404
lfingers 7.12502
lthumb -182.889 -137.299
rfemur 5.54407 -6.24755 18.3154
rtibia 29.217
rfoot 26.969 -24.2139
rtoes 19.9767
lfemur -21.6138 -12.6896 -15.1876
ltibia 15.0625
lfoot 44.6508 -36.2154
ltoes 38.5105
299
root -6.52131 18.2172 -2.93135 -168.295 3.867 -174.565
lowerback -5.50395 9.0018 13.3346
upperback -9.50843 15.879 7.98714
thorax -6.56039 8.67619 1.27671
lowerneck -6.22266 -20.798 -0.864922
upperneck 11.7611 -29.9172 3.35472
head 5.20941 -14.7794 -0.878146
rclavicle -1.00983e-013 -8.5875e-014
rhumerus 96.9706 35.7978 -51.8419
rradius 64.104
rwrist 12.0472
rhand -27.4096 24.0736
rfingers 7.12502
rthumb -0.815717 -5.90461
lclavicle -1.00983e-013 -8.5875e-014
lhumerus 52.4427 8.61557 77.8086
lradius 81.3806
lwrist 29.7163
lhand -29.22 12.4467
lfingers 7.12502
lthumb -182.564 -137.589
rfemur 5.79679 -6.40582 18.6683
rtibia 28.7111
rfoot 27.3932 -24.279
rtoes 20.2678
lfemur -22.0517 -13.2378 -14.9348
ltibia 15.6498
lfoot 44.6778 -36.4774
ltoes 38.6399
300
root -6.51321 18.2094 -2.98116 -168.145 3.15595 -174.418
lowerback -5.64624 9.11226 13.3591
upperback -9.70027 16.0536 7.75414
thorax -6.61732 8.75919 1.04518
lowerneck -6.52171 -20.6949 -1.19292
upperneck 11.7653 -29.6666 3.43238
head 5.30737 -14.6369 -0.851775
rclavicle -9.06458e-014 7.95139e-014
rhumerus 98.2076 35.1927 -51.3604
rradius 65.7006
rwrist 12.6867
rhand -28.3386 24.4551
rfingers 7.12502
rthumb -1.71292 -5.51776
lclavicle -9.06458e-014 7.95139e-014
lhumerus 53.9203 9.46124 77.3674
lradius 82.7563
lwrist 29.3707
lhand -28.9888 12.6663
lfingers 7.12502
lthumb -182.341 -137.367
rfemur 6.11711 -6.72659 19.0188
rtibia 28.1891
rfoot 27.8131 -24.0686
rtoes 20.4052
lfemur -22.4601 -13.7252 -14.6467
ltibia 16.2274
lfoot 44.9189 -36.5282
ltoes 39.0928
301
root -6.50963 18.2016 -3.03116 -167.981 2.4447 -174.241
lowerback -5.58763 9.18497 13.4983
upperback -10.0272 16.2858 7.52071
thorax -6.91921 8.85835 0.694715
lowerneck -6.57453 -20.6065 -1.73271
upperneck 11.8581 -29.4405 3.462
head 5.41694 -14.5257 -0.799885
rclavicle -4.77083e-015 7.31528e-014
rhumerus 99.1024 34.7883 -51.1643
rradius 67.2216
rwrist 13.2841
rhand -29.0159 24.3662
rfingers 7.12502
rthumb -2.36707 -5.6004
lclavicle -4.77083e-015 7.31528e-014
lhumerus 55.1 10.2263 76.9136
lradius 84.1281
lwrist 29.2626
lhand -29.1578 13.003
lfingers 7.12502
lthumb -182.504 -137.032
rfemur 6.4055 -7.09054 19.3712
rtibia 27.6574
rfoot 28.6147 -23.3474
rtoes 18.9047
lfemur -22.872 -14.2839 -14.321
ltibia 16.7845
lfoot 44.8488 -36.8332
ltoes 39.0537
302
root -6.50706 18.195 -3.08355 -167.863 1.76692 -174.075
lowerback -5.69623 9.22145 13.636
upperback -10.2209 16.3936 7.35762
thorax -7.00138 8.90903 0.468113
lowerneck -6.56316 -20.5109 -2.2009
upperneck 11.7759 -29.1682 3.43909
head 5.44096 -14.3979 -0.739058
rclavicle 3.33958e-014 9.54166e-015
rhumerus 100.145 34.49 -50.8815
rradius 68.6864
rwrist 13.7572
rhand -29.5458 25.3006
rfingers 7.12502
rthumb -2.87878 -4.65969
lclavicle 3.33958e-014 9.54166e-015
lhumerus 56.2235 11.0632 76.3705
lradius 85.4061
lwrist 28.9176
lhand -29.8199 12.9404
lfingers 7.12502
lthumb -183.143 -137.103
rfemur 6.74016 -7.38535 19.7076
rtibia 27.1271
rfoot 29.1982 -22.9274
rtoes 17.8588
lfemur -23.2154 -14.809 -14.0285
ltibia 17.3115
lfoot 44.7238 -37.2674
ltoes 38.9906
303
root -6.50189 18.188 -3.13574 -167.792 1.18118 -174.076
lowerback -5.78529 9.31887 13.6391
upperback -10.4145 16.5391 7.08178
thorax -7.07615 8.96686 0.193006
lowerneck -6.547 -20.4508 -2.64254
upperneck 11.7779 -28.9987 3.50504
head 5.50361 -14.3157 -0.673427
rclavicle -5.08889e-014 -2.8625e-014
rhumerus 101.075 34.066 -50.6734
rradius 70.0422
rwrist 14.1611
rhand -30.5579 25.9668
rfingers 7.12502
rthumb -3.85625 -3.97801
lclavicle -5.08889e-014 -2.8625e-014
lhumerus 57.3419 11.7372 75.8129
lradius 86.5796
lwrist 28.4998
lhand -30.4538 12.8582
lfingers 7.12502
lthumb -183.756 -137.195
rfemur 7.13729 -7.68392 19.8397
rtibia 26.5982
rfoot 29.3574 -22.869
rtoes 17.3913
lfemur -23.4809 -15.1667 -13.9684
ltibia 17.7998
lfoot 45.0923 -37.2705
ltoes 39.3037
304
root -6.49655 18.1809 -3.18502 -167.669 0.647258 -174.118
lowerback -6.39066 9.31163 13.2617
upperback -10.2624 16.3963 7.14752
thorax -6.67424 8.96595 0.586539
lowerneck -6.83694 -20.3406 -2.94162
upperneck 11.6299 -28.6402 3.2581
head 5.49271 -14.1394 -0.697839
rclavicle 6.2816e-014 1.90833e-014
rhumerus 102.696 33.8211 -49.8978
rradius 71.3632
rwrist 14.3722
rhand -31.3879 26.946
rfingers 7.12502
rthumb -4.65775 -2.98277
lclavicle 6.2816e-014 1.90833e-014
lhumerus 58.4967 13.0486 75.3389
lradius 87.5755
lwrist 27.5805
lhand -31.2142 13.1052
lfingers 7.12502
lthumb -184.49 -136.962
rfemur 7.48457 -8.03351 19.9
rtibia 26.0629
rfoot 29.6136 -22.5832
rtoes 16.4359
lfemur -23.7716 -15.4281 -13.951
ltibia 18.2286
lfoot 45.6182 -37.0926
ltoes 39.7946
305
root -6.49147 18.1728 -3.23155 -167.567 0.109182 -174.047
lowerback -6.06808 9.47842 13.4044
upperback -10.7734 16.8069 6.67083
thorax -7.2372 9.11065 -0.0824261
lowerneck -6.51977 -20.4126 -3.0149
upperneck 11.6557 -28.6845 3.036
head 5.4292 -14.1888 -0.714991
rclavicle 1.11319e-013 2.01965e-013
rhumerus 103.003 33.4384 -50.1373
rradius 72.4354
rwrist 14.8348
rhand -32.0862 27.6412
rfingers 7.12502
rthumb -5.33194 -2.27167
lclavicle 1.11319e-013 2.01965e-013
lhumerus 59.2359 13.2817 74.4261
lradius 88.3655
lwrist 26.1094
lhand -32.1967 13.3205
lfingers 7.12502
lthumb -185.439 -136.769
rfemur 7.85682 -8.26434 20.1196
rtibia 25.5226
rfoot 29.6737 -22.7067
rtoes 16.6147
lfemur -24.0161 -15.6221 -13.8209
ltibia 18.5993
lfoot 46.0189 -37.2644
ltoes 40.3029
306
root -6.48134 18.166 -3.27948 -167.492 -0.427779 -173.87
lowerback -6.13951 9.51352 13.3496
upperback -10.9845 16.9376 6.53602
thorax -7.40857 9.18441 -0.203711
lowerneck -6.90636 -20.2371 -3.10275
upperneck 12.1355 -28.3601 2.62786
head 5.58353 -14.0339 -0.856537
rclavicle -7.31528e-014 0
rhumerus 103.804 33.2033 -49.8899
rradius 73.5447
rwrist 15.4744
rhand -33.0856 27.8522
rfingers 7.12502
rthumb -6.29682 -2.03416
lclavicle -7.31528e-014 0
lhumerus 60.1007 14.0559 73.8896
lradius 89.2203
lwrist 24.7535
lhand -32.8694 13.3965
lfingers 7.12502
lthumb -186.088 -136.711
rfemur 8.23277 -8.22521 20.5827
rtibia 24.9732
rfoot 29.4302 -23.4333
rtoes 17.6765
lfemur -24.239 -15.8098 -13.5383
ltibia 18.9619
lfoot 46.5899 -37.2258
ltoes 41.0084
307
root -6.46925 18.1607 -3.32683 -167.365 -0.947188 -173.69
lowerback -6.4653 13.8061 12.7687
upperback -11.798 15.9605 5.6052
thorax -7.42767 6.00353 -0.250337
lowerneck -7.29685 -20.1963 -3.12497
upperneck 12.5538 -28.225 2.21963
head 5.71631 -13.9714 -1.016
rclavicle -9.06458e-014 1.59028e-015
rhumerus 104.605 32.8118 -49.5507
rradius 74.685
rwrist 16.0629
rhand -34.2348 27.9066
rfingers 7.12502
rthumb -7.40619 -1.94377
lclavicle -9.06458e-014 1.59028e-015
lhumerus 61.0965 14.8186 73.7243
lradius 90.1083
lwrist 23.4049
lhand -33.1103 13.6794
lfingers 7.12502
lthumb -186.321 -136.435
rfemur 8.52147 -8.16856 21.0752
rtibia 24.4224
rfoot 29.4841 -23.7952
rtoes 17.6163
lfemur -24.5411 -16.0389 -13.1852
ltibia 19.3245
lfoot 47.2468 -36.8209
ltoes 41.9194
308
root -6.46401 18.1542 -3.37082 -167.272 -1.41811 -173.637
lowerback -6.59607 13.9009 12.7008
upperback -12.0304 16.0776 5.35561
thorax -7.55325 6.04212 -0.455952
lowerneck -6.62036 -20.2164 -3.28298
upperneck 12.2387 -28.2825 2.48999
head 5.57329 -14.0171 -0.844156
rclavicle -1.66979e-014 7.95139e-015
rhumerus 105.224 32.4362 -49.3195
rradius 75.7535
rwrist 16.4434
rhand -35.2894 28.1457
rfingers 7.12502
rthumb -8.42412 -1.66632
lclavicle -1.66979e-014 7.95139e-015
lhumerus 61.8871 15.4387 73.6299
lradius 91.0737
lwrist 22.1406
lhand -33.0688 13.8566
lfingers 7.12502
lthumb -186.281 -136.256
rfemur 8.85714 -8.33722 21.2813
rtibia 23.8861
rfoot 29.6373 -23.8665
rtoes 17.272
lfemur -24.782 -16.2003 -13.05
ltibia 19.6709
lfoot 47.7731 -36.6699
ltoes 42.475
